<?xml version="1.0" encoding="utf-8"?>
<!-- Generator: Adobe Illustrator 25.0.1, SVG Export Plug-In . SVG Version: 6.00 Build 0)  -->
<svg version="1.0" id="katman_1" xmlns="http://www.w3.org/2000/svg" xmlns:xlink="http://www.w3.org/1999/xlink" x="0px" y="0px"
	 viewBox="0 0 3850.7 2518.3" style="enable-background:new 0 0 3850.7 2518.3;" xml:space="preserve">
<style type="text/css">
	.st0{fill:url(#SVGID_1_);}
	.st1{fill:#006699;}
	.st2{fill:#CEE6FF;}
</style>
<linearGradient id="SVGID_1_" gradientUnits="userSpaceOnUse" x1="1701.5764" y1="1745.8475" x2="1701.5764" y2="1053.1405" gradientTransform="matrix(2.7525 0 0 -2.7525 -2745.73 5193.5435)">
	<stop  offset="1.800000e-02" style="stop-color:#3BB6FF"/>
	<stop  offset="0.302" style="stop-color:#39AFFF"/>
	<stop  offset="0.552" style="stop-color:#36A3FF"/>
	<stop  offset="0.717" style="stop-color:#359FFF"/>
	<stop  offset="0.832" style="stop-color:#3398FF"/>
	<stop  offset="0.964" style="stop-color:#3297FF"/>
</linearGradient>
<path class="st0" d="M906.1,1022.3c3.7-11.3,162.3-555.1,790.2-562.7c0,0,263.3-297.8,622.1,0c0,0,97.3,80,150.7,246.1
	c0,0,471.1,71.5,547.3,460.8c0,0,158.9,641.1-379.2,1091.4c0,0-75.8,60.6-126.3,88.8c0,0-111.9,0.2-135,0c-49.3-0.4-80.4,0-125.2,0
	c0,0-68.8-24.6-71.6-103.2c0,0-5.8-273.4-4.2-320.7c0,0,1.4-44.2-63-41.5c0,0-61.5-7.1-70.2,45.8c0,0-1.5,282-2.8,332.1
	c0,0-4.3,83.2-97.4,87.3c0,0-333.5,10.1-377.8-5.7c0,0-77.3-14.3-83-87.3c0,0-63-372.1-74.4-487.9c0,0-211.9-117.4-254.8-148.9
	c0,0,14.3,379.2,146,539.6c0,0,23,20.1-22.9,48.6c0,0-17.1,14.3-34.4,5.9c0,0-564.7-315.4-356.7-1120.5"/>
<path class="st1" d="M1538.2,1541.1c0,0,492.7,280.8,790.8-170c0,0,241.4-315.2,145.2-651.5c0,0,169.3,282.6-158.3,721.1
	C2316.1,1440.7,2038.3,1831.5,1538.2,1541.1L1538.2,1541.1z"/>
<path class="st2" d="M1343.3,1474.8c0,0,35.1,162.7-72.9,213.9c0,0-245.9-101.3-221-288.4c0,0,7.7-46.7,53.5-18.1
	c0,0,108.8,59.2,194.7,76.2C1297.4,1458.5,1341.1,1462.5,1343.3,1474.8z"/>
<path class="st1" d="M1275,1199.9c0,0,37.1-158.5,177-148.4c0,0,118.9,3.2,123.1,166.7C1575.1,1218.2,1481.5,973.6,1275,1199.9
	L1275,1199.9z"/>
</svg>
